<svg width="293" height="152" viewBox="0 0 293 152" fill="none" xmlns="http://www.w3.org/2000/svg">
<path d="M143.141 93.8906H159.547C159.328 98.6406 158.047 102.828 155.703 106.453C153.359 110.078 150.109 112.906 145.953 114.937C141.828 116.937 136.953 117.937 131.328 117.937C126.766 117.937 122.687 117.172 119.094 115.641C115.531 114.109 112.5 111.906 110 109.031C107.531 106.156 105.641 102.672 104.328 98.5781C103.047 94.4844 102.406 89.875 102.406 84.75V81.0469C102.406 75.9219 103.078 71.3125 104.422 67.2187C105.797 63.0937 107.734 59.5937 110.234 56.7187C112.766 53.8125 115.797 51.5937 119.328 50.0625C122.859 48.5312 126.781 47.7656 131.094 47.7656C137.031 47.7656 142.047 48.8281 146.141 50.9531C150.234 53.0781 153.406 56 155.656 59.7187C157.906 63.4062 159.234 67.6094 159.641 72.3281H143.234C143.172 69.7656 142.734 67.625 141.922 65.9062C141.109 64.1562 139.828 62.8437 138.078 61.9687C136.328 61.0937 134 60.6562 131.094 60.6562C129.062 60.6562 127.297 61.0312 125.797 61.7812C124.297 62.5312 123.047 63.7187 122.047 65.3437C121.047 66.9687 120.297 69.0781 119.797 71.6719C119.328 74.2344 119.094 77.3281 119.094 80.9531V84.75C119.094 88.375 119.312 91.4687 119.75 94.0312C120.187 96.5937 120.891 98.6875 121.859 100.312C122.828 101.937 124.078 103.141 125.609 103.922C127.172 104.672 129.078 105.047 131.328 105.047C133.828 105.047 135.937 104.656 137.656 103.875C139.375 103.062 140.703 101.844 141.641 100.219C142.578 98.5625 143.078 96.4531 143.141 93.8906Z" fill="white"/>
<path d="M224.609 48.75V117H208.156V61.4531H183.641V117H167.234V48.75H224.609Z" fill="white"/>
<path d="M251.234 48.75V117H234.828V48.75H251.234ZM290.609 48.75L266.094 90H248.375L246.406 75.1406H257.609L270.734 48.75H290.609ZM273.547 117L257.562 87.1406L269.516 76.125L292.953 117H273.547Z" fill="white"/>
<path d="M38 76.5L98.1955 0.451782L73.6954 73.507L98.1954 73.507L83.6954 101.507L63.6954 101.507L41.1952 152.007L26.6953 101.507L0.195435 101.507L38 76.5Z" fill="white"/>
</svg>
